<svg xmlns:xlink="http://www.w3.org/1999/xlink" xmlns="http://www.w3.org/2000/svg" version="1.1" viewBox="0 0 1024 1024" height="1024px" width="1024px">
    <title>起飞</title>
    <defs>
        <linearGradient id="linearGradient-1" y2="94.9598849%" x2="50%" y1="0.455533649%" x1="50%">
            <stop offset="0%" stop-color="#9ED7FC"></stop>
            <stop offset="100%" stop-color="#DDEBF8"></stop>
        </linearGradient>
        <linearGradient id="linearGradient-2" y2="94.9598849%" x2="50%" y1="0.455533649%" x1="50%">
            <stop offset="0%" stop-color="#9ED7FC"></stop>
            <stop offset="100%" stop-color="#DDEBF8"></stop>
        </linearGradient>
        <linearGradient id="linearGradient-3" y2="94.9598849%" x2="50%" y1="0.455533649%" x1="50%">
            <stop offset="0%" stop-color="#9ED7FC"></stop>
            <stop offset="100%" stop-color="#DDEBF8"></stop>
        </linearGradient>
        <linearGradient id="linearGradient-4" y2="94.9598849%" x2="50%" y1="0.455533649%" x1="50%">
            <stop offset="0%" stop-color="#9ED7FC"></stop>
            <stop offset="100%" stop-color="#DDEBF8"></stop>
        </linearGradient>
    </defs>
    <g fill-rule="evenodd" fill="none" stroke-width="1" stroke="none" id="起飞">
        <g fill-rule="nonzero" transform="translate(82.000000, 152.000000)">
            <g transform="translate(256.000000, 738.000000)" id="脚">
                <path fill="#FFFFFF" id="椭圆-4" d="M58.5,2 C89.5196078,2 115,19.6783217 115,41.5 C115,63.3216783 89.5196078,81 58.5,81 C27.2034314,81 2,63.3216783 2,41.5 C2,19.6783217 27.2034314,2 58.5,2 Z"></path>
                <path fill="#000000" id="椭圆-4备份" d="M58.5,0 C26.2717088,0 4.97379915e-14,18.558594 4.97379915e-14,42 C4.97379915e-14,55.1271873 8.23880789,66.7231249 21.1487624,74.3861264 L22.5496836,75.1920034 C32.4789765,80.726264 44.9641177,84 58.5,84 C90.5473632,84 117,65.3767264 117,42 C117,27.7401969 107.156974,15.2491536 92.2052709,7.67505584 L90.7183033,6.94603044 C81.4491307,2.54952616 70.3575244,0 58.5,0 Z M58.5,5 C88.0748344,5 112,21.825465 112,42 C112,62.174535 88.0748344,79 58.5,79 C28.746741,79 5,62.2434027 5,42 C5,21.7565973 28.746741,5 58.5,5 Z"></path>
                <path fill="#FFFFFF" id="椭圆-4-拷贝" d="M280.5,2 C311.519608,2 337,19.6783217 337,41.5 C337,63.3216783 311.519608,81 280.5,81 C249.480392,81 224,63.3216783 224,41.5 C224,19.6783217 249.480392,2 280.5,2 Z"></path>
                <path fill="#000000" id="椭圆-4-拷贝备份" d="M280.5,-1 C276.97479,-1 273.517276,-0.774658389 270.155221,-0.3424359 L268.331006,-0.0862720246 C261.073349,1.01956426 254.294133,3.09424388 248.281697,5.94603044 L246.794729,6.67505584 C231.843026,14.2491536 222,26.7401969 222,41 C222,64.3767264 248.452637,83 280.5,83 C312.547363,83 339,64.3767264 339,41 C339,20.662248 318.977999,3.92238449 292.668994,-0.0862720246 L290.844779,-0.3424359 C287.482724,-0.774658389 284.02521,-1 280.5,-1 Z M280.5,4 C310.074834,4 334,20.825465 334,41 C334,61.174535 310.074834,78 280.5,78 C271.061223,78 262.197899,76.2862247 254.504114,73.2967546 L252.981127,72.6819811 C237.408368,66.156242 227,54.3066082 227,41 C227,27.0495237 238.439998,14.7004304 255.277369,8.40856691 L256.846742,7.84511328 C263.976318,5.38815799 272.005101,4 280.5,4 Z"></path>
            </g>
            <g transform="translate(165.000000, 388.000000)" id="左手">
                <path fill="#FFFFFF" id="形状-22-拷贝" d="M124,71.8124301 L117.650752,93.6737703 C104.952256,122.17653 79.8313174,126.604143 79.8313174,126.604143 C75.1383949,126.050692 66.0286041,130.201579 66.0286041,130.201579 L8.60931675,154 C-8.50604775,150.67929 13.026185,134.075741 13.026185,134.075741 C46.4287512,118.302369 76.5186662,75.4098658 76.5186662,75.4098658 C101.36355,56.5925098 124,71.8124301 124,71.8124301 L124,71.8124301 Z"></path>
                <path fill="#000000" id="形状-22-拷贝备份" d="M76.2999046,73.2207708 L75.0672609,74.1424376 L74.027213,75.5990442 L72.8756336,77.1619839 L72.1638775,78.1114694 L70.6482218,80.0984249 C70.385516,80.4389919 70.1178093,80.7841401 69.8451725,81.1336852 L68.1507573,83.282247 C67.8586835,83.6486436 67.5618214,84.019069 67.2602417,84.3933389 C61.2272017,91.8805331 54.5587615,99.3677669 47.4526956,106.348654 C35.6143806,117.978428 23.7794871,126.997961 12.3883461,132.391029 L11.9501973,132.659783 L11.5384043,132.986956 C7.91177266,135.915507 4.28235788,139.483317 2.03533835,143.118863 C-1.97150924,149.601707 -0.194148455,155.163854 8.54163798,156.863157 L9.24511914,157 L67.4957267,132.787234 L67.829631,132.641245 C68.2841382,132.444728 68.742221,132.252719 69.2011755,132.066584 L70.5779497,131.527168 C74.2418994,130.143004 77.7885784,129.222195 79.8335481,129.463989 L80.1811239,129.505086 L80.87681,129.378044 L81.6727364,129.202867 C82.1012447,129.100557 82.574807,128.975749 83.089988,128.826561 L84.1748234,128.495125 C84.743969,128.312597 85.3524428,128.104437 85.9968094,127.868766 L87.3323817,127.360183 C87.562614,127.26912 87.7965799,127.174861 88.0341521,127.077336 C93.531367,124.820693 99.0214331,121.540132 104.14413,117.04188 C110.640073,111.337777 116.063798,104.076103 120.0558,95.0925249 L120.168127,94.7848489 L127,71.2008027 L125.496251,70.2031661 C124.495065,69.5443179 122.899851,68.6603372 120.781193,67.7341105 C117.418746,66.2641291 113.680756,65.1257682 109.638273,64.5078453 C98.5546676,62.8136356 87.2115721,65.2692282 76.2999046,73.2207708 Z M109.480046,69.4519643 C113.100937,70.0024256 116.455906,71.0185702 119.465876,72.3272813 L120.068183,72.5948435 C120.457296,72.771473 120.821412,72.9442842 121.159659,73.1113125 L122,73.5408238 L116.211128,93.4146597 L116.276304,93.2763544 C112.560436,101.592922 107.541274,108.276291 101.53928,113.517915 C96.8213609,117.638139 91.7679136,120.641334 86.7216363,122.701567 C84.9642022,123.419071 83.3380005,123.96665 81.8871156,124.36622 L81.2248508,124.541779 L80.6973887,124.669776 L80.446053,124.722233 L80.8668197,124.759648 C78.6589624,124.500017 75.8424762,124.994735 72.507957,126.019085 C70.3276724,126.68886 68.1980098,127.502138 66.366728,128.289628 L65.7733563,128.550128 L9.0236356,152 L8.79419047,151.947439 C4.45903887,150.921213 4.12665342,149.231498 6.34698827,145.658717 L6.80782621,144.953807 C8.58641984,142.357806 11.3140968,139.653313 14.0564211,137.373381 L14.9513635,136.641748 L14.7037255,136.762169 C26.6846419,131.120807 38.9552615,121.820199 51.1779357,109.878316 C58.4486461,102.774636 65.2576741,95.1712422 71.4179709,87.5678094 L72.3278256,86.4387726 L74.0598412,84.254465 C74.338628,83.8989749 74.6124272,83.5478871 74.8811696,83.2013841 L76.432386,81.1788437 L77.5856557,79.643264 L78.995244,77.7118167 L78.7127854,77.9232436 C88.8753249,70.2483371 99.2806216,67.9014101 109.480046,69.4519643 Z"></path>
                <path fill="url(#linearGradient-1)" id="形状-507" d="M159.47619,126.913768 C131.580952,163.277554 76.6190476,163 76.6190476,163 C52.8666667,150.786178 49,107.482738 49,107.482738 C77.447619,57.2396443 165,2 165,2"></path>
                <path fill="#000000" id="形状-507备份" d="M163.450802,0 L166,4.061053 L164.032105,5.31916687 L161.399353,7.03380633 L160.669089,7.51419347 C159.722967,8.13778612 158.75273,8.78178806 157.759719,9.44564887 L154.713713,11.4962576 L151.539128,13.6627172 L148.244024,15.9417252 C147.685244,16.3307555 147.121779,16.7243377 146.553795,17.122403 C131.94908,27.357964 117.34509,38.446326 103.722941,49.9831162 C84.8369948,65.9778907 69.3960542,81.5332618 58.6174713,96.1210775 C55.8942449,99.8067127 53.4867205,103.409072 51.4087266,106.920971 L50.9177396,107.758901 L51.1267427,109.432718 C51.3879752,111.389925 51.7383787,113.574683 52.1899428,115.92922 C53.4792079,122.651682 55.3163572,129.370773 57.7901479,135.619633 C62.3543599,147.148951 68.5317491,155.678048 76.4577071,160.060015 L76.7271663,160.203532 L78.3429246,160.157201 L79.3634818,160.110729 L80.5210707,160.046125 C83.8664243,159.843129 87.579432,159.47359 91.5658921,158.896363 C102.864246,157.260397 114.140992,154.30298 124.641789,149.705828 C137.514502,144.070273 148.32143,136.341007 156.431564,126.241761 L157.290159,125.150617 L161.087253,128.078343 C152.356901,139.402626 140.590706,147.957791 126.564526,154.098323 C115.632956,158.884064 103.949095,161.94825 92.2529274,163.641819 C88.6451893,164.164208 85.250633,164.522469 82.1312862,164.745078 L79.5918003,164.900231 L78.0231721,164.967303 L76.7809339,165 L75.5549515,165 L75.0463616,164.739773 C65.524558,159.867815 58.4321802,150.267386 53.3321904,137.384679 C50.7369561,130.82905 48.8229991,123.829047 47.4811524,116.832414 C47.0900482,114.793126 46.7715944,112.874114 46.5184119,111.108107 L46.2438651,109.049042 L46.0670917,107.44905 L46,106.701407 L46.3712358,106.048998 C48.7366432,101.892034 51.5404589,97.6307348 54.7613756,93.2715217 C65.7942257,78.3395789 81.4794073,62.5381567 100.624394,46.3239967 C114.368629,34.6838101 129.085764,23.5095408 143.802174,13.1956999 L145.505259,12.0060432 L148.825842,9.70942308 L152.025619,7.52578798 L155.09656,5.45841064 L158.76883,3.02495995 L163.123699,0.206612566 L163.450802,0 Z"></path>
            </g>
            <g transform="translate(244.000000, 376.000000)" id="衣服">
                <path fill="url(#linearGradient-2)" d="M288.982509,7.75526411 C297.831366,8.1117856 330.691148,5 330.691148,5 C336.698896,26.6331307 341.345574,93.1684515 341.345574,93.1684515 C336.109267,136.701624 338.90022,157.154738 338.90022,157.154738 L352,373.836106 C289.991107,431.145599 225.595641,395.508933 225.595641,395.508933 L212.014953,217.155336 L133.546884,400.562167 C72.0891811,424.808492 2,382.013889 2,382.013889 L21.6552815,286.036939 L43.7028879,170.315847 C47.8368141,154.059788 55.0960683,104.189508 55.0960683,104.189508 C72.4585583,20.7050054 87.7981006,7.75526411 87.7981006,7.75526411 L288.982509,7.75526411 Z"></path>
                <path fill="#000000" id="形状-23" d="M330.021669,0.0514197914 C331.311228,-0.219571833 332.576026,0.607466724 332.846674,1.89866211 C344.151456,55.8309577 346.083368,103.688527 342.611128,141.95195 L342.365714,144.528832 L342.113671,146.93817 C342.07123,147.325658 342.028602,147.706087 341.985831,148.079415 L341.727854,150.233875 L341.422614,152.547389 L341.173997,154.231914 L355,375.712764 L354.25348,376.472829 C341.624608,389.33084 326.481523,397.861553 309.388032,402.583903 C286.694323,408.853403 262.530306,408.099427 239.567674,403.07536 C236.127112,402.322588 232.972248,401.522172 230.143498,400.714829 L228.307985,400.176427 L226.570736,399.636129 L225.146506,399.162306 L223.562117,398.594783 L210.423644,232.87291 L136.60864,404.451738 L135.416287,404.716029 C98.508341,412.896856 62.0593295,408.822881 28.5612633,397.062967 C21.1635933,394.465923 14.5112839,391.681929 8.70464266,388.894933 L7.70636827,388.411589 L5.83591871,387.481601 C5.53830453,387.330894 5.24779285,387.182402 4.96444186,387.036233 L3.35072977,386.187934 L1.8116709,385.342786 L1.44847106,385.133578 L0,384.282021 L38.8588237,178.654201 L39.3528226,174.859649 L39.903683,170.925822 L40.3881436,167.625357 L41.0151563,163.518299 L41.6892018,159.275074 C41.8054893,158.556824 41.9237567,157.833127 42.0440144,157.104095 L42.7895242,152.666802 C42.9177834,151.916887 43.0480531,151.161863 43.1803435,150.401845 L43.9984155,145.782707 L44.8654724,141.049127 C45.0140911,140.250962 45.1647711,139.448255 45.3175227,138.64112 C50.9920756,108.656911 58.3348974,78.6700032 67.5290352,50.6640176 C72.327257,36.048299 77.5216632,22.3388896 83.1285337,9.69563155 C83.6632669,8.48983044 85.0730102,7.94637244 86.2772835,8.48178412 C87.4815567,9.01719581 88.0243261,10.4287277 87.4895928,11.6345288 C81.9510979,24.1236029 76.8127266,37.6851213 72.0620695,52.1559544 C62.9395734,79.9437147 55.6444526,109.73582 50.0057444,139.530625 L49.556409,141.924166 L48.6945989,146.629068 L47.8815372,151.219852 C47.7500626,151.97517 47.6205994,152.725506 47.4931373,153.470746 L46.7523005,157.88013 L46.059015,162.161766 C45.9474034,162.864424 45.8377532,163.561531 45.7300544,164.252975 L45.1071982,168.332767 L44.6268309,171.605294 L44.0810972,175.502381 L43.571927,179.382615 L5.31906248,381.822588 L5.6034431,381.976183 C6.33604562,382.369021 7.13373006,382.784885 7.9948964,383.220916 L9.80139752,384.119019 L10.7672411,384.586646 C16.4214368,387.300474 22.9132588,390.017303 30.1400571,392.554361 C62.2980123,403.843812 97.2144903,407.879167 132.52608,400.452731 L133.194497,400.305133 L213.659849,213.27955 L228.071589,395.099826 L229.68697,395.602586 L230.302477,395.786378 C233.32126,396.678839 236.769728,397.572749 240.586319,398.407793 C262.857091,403.280486 286.280971,404.011368 308.118882,397.978296 C323.937015,393.608284 337.959558,385.846423 349.752313,374.223779 L350.104139,373.870101 L336.378685,153.986135 L336.618069,152.4414 L336.867026,150.626033 L337.120047,148.604083 L337.371146,146.411095 L337.618193,144.048975 L337.859054,141.519625 C341.290633,103.704273 339.377701,56.3168759 328.176767,2.88000959 C327.906119,1.58881421 328.732109,0.322411416 330.021669,0.0514197914 Z"></path>
            </g>
            <g transform="translate(233.000000, 0.000000)" id="头">
                <path fill="url(#linearGradient-3)" id="帽子" d="M200.5,6 C310.226389,6 399,94.3916084 399,203.5 C399,312.608392 310.226389,401 200.5,401 C90.7736111,401 2,312.608392 2,203.5 C2,94.3916084 90.7736111,6 200.5,6 Z"></path>
                <path fill="#000000" id="帽子备份" d="M201,3 C89.9190896,3 0,92.4847096 0,203 C0,313.51529 89.9190896,403 201,403 C312.08091,403 402,313.51529 402,203 C402,92.4847096 312.08091,3 201,3 Z M201,8 C309.326579,8 397,95.2534386 397,203 C397,310.746561 309.326579,398 201,398 C92.6734208,398 5,310.746561 5,203 C5,95.2534386 92.6734208,8 201,8 Z"></path>
                <path fill="#64BEF8" id="蓝色" d="M228.055104,4 C228.055104,4 267.029209,57.5520833 256.050588,109.723958 C256.050588,109.723958 246.993225,110 232.995484,110 C232.995484,110 241.229449,68.0416667 205,4.828125 L228.055104,4 Z"></path>
                <path fill="#000000" id="蓝色备份" d="M205.550524,0.00573242659 C203.646985,-0.122381273 202.370396,1.92250905 203.323168,3.57359566 C216.912741,27.1233449 225.211437,49.6339924 229.214005,70.6396754 C231.873305,84.5958189 232.377224,96.2760522 231.610848,105.256911 L231.472527,106.717643 L231.378872,107.555974 L231.250372,108.536358 L231.146163,109.179418 C230.87195,110.646293 231.999439,112.001193 233.493322,112 L238.834915,111.986733 L243.997514,111.948045 L248.835489,111.886904 L255.528192,111.755743 L256.704314,111.723746 C257.804615,111.69116 258.73976,110.910836 258.967682,109.835099 C259.250403,108.500718 259.502706,107.157468 259.724962,105.80559 C263.776129,81.1642349 257.923427,54.9013117 245.718804,29.078137 C242.390842,22.0366634 238.825538,15.5642636 235.257974,9.80238453 L234.03739,7.85982598 L232.88191,6.07558108 L231.537768,4.07199616 L230.577674,2.69888051 C230.533486,2.63757924 230.493403,2.58241273 230.457512,2.53343306 C230.041473,1.96567101 229.395527,1.6105706 228.692736,1.56327073 L205.550524,0.00573242659 Z M210,5 L227.753507,6.18243909 L228.36929,7.06913842 L228.888022,7.83093668 L229.981532,9.47606617 L231.144279,11.2798733 C231.343474,11.5935066 231.54528,11.9135831 231.749559,12.2400187 C235.258159,17.8467211 238.769039,24.1528963 242.045513,31.0120934 C253.980701,55.9980419 259.68381,81.3189725 255.78064,104.808986 L255.558687,106.084357 L255.424906,106.78017 L251.012312,106.868816 L247.888451,106.916043 L244.612876,106.954232 L241.192204,106.982511 L236.811518,107 L236.864762,106.480349 C237.807227,96.9516542 237.34669,84.4923514 234.475415,69.5831602 C230.685257,49.9026331 223.185983,28.9752879 211.209431,7.17530348 L210,5 Z"></path>
                <path fill="#F8E3DE" id="椭圆-5" d="M242.36205,110 C312.164667,110 369,166.077348 369,234.861878 C369,303.922652 312.164667,360 242.36205,360 C172.559433,360 116,303.922652 116,234.861878 C116,166.077348 172.559433,110 242.36205,110 L242.36205,110 Z"></path>
                <path fill="#000000" id="椭圆-5备份" d="M242.861932,108 C171.751298,108 114,165.124712 114,235.361762 C114,305.831717 171.707245,363 242.861932,363 C314.067645,363 372,305.781315 372,235.361762 C372,165.175032 314.023464,108 242.861932,108 Z M242.862173,113 C311.278484,113 367,167.952646 367,235.362 C367,303.005434 311.320984,358 242.862173,358 C174.457476,358 119,303.059015 119,235.362 C119,167.899142 174.499843,113 242.862173,113 Z"></path>
                <g transform="translate(163.000000, 161.000000)" id="左眼">
                    <path fill="#000000" id="形状-11" d="M4.90883863,-5.32907052e-15 C33.3051066,0.824828263 50.0087936,17.3213935 50.0087936,17.3213935 C53.0711362,23.0951914 48.0600301,20.3457638 48.0600301,20.3457638 C30.2427639,10.9977102 0.454522096,2.19954203 0.454522096,2.19954203 C-1.77263617,0.274942754 4.90883863,-5.32907052e-15 4.90883863,-5.32907052e-15 Z"></path>
                    <path fill="#000000" id="椭圆-1" d="M28.5375068,38.0566479 C38.0696165,37.2350972 46.7606577,45.4506038 47.8820824,56.1307624 C49.0035071,67.0847712 41.9946029,76.3956787 32.4624932,76.9433791 C22.6500273,77.7649298 13.9589861,69.5494232 13.1179176,58.5954144 C11.9964929,47.9152558 19.0053971,38.6043483 28.5375068,38.0566479 L28.5375068,38.0566479 Z"></path>
                    <path fill="#FFFFFF" id="椭圆-2" d="M34.9236183,47.0196174 C38.0937178,46.7347038 40.6874356,49.5838396 40.9756265,53.5726296 C41.2638173,57.5614197 38.9582904,60.9803826 36.0763817,60.9803826 C33.1944731,61.2652962 30.3125644,58.4161604 30.0243735,54.4273704 C29.7361827,50.4385803 32.0417096,47.0196174 34.9236183,47.0196174 Z"></path>
                    <path fill="#FFFFFF" id="椭圆-3-拷贝" d="M36.6315789,64 C37.9473684,64 39,64.5 39,65.5 C39,66.25 37.9473684,67 36.6315789,67 C35.3157895,67 34,66.25 34,65.5 C34,64.5 35.3157895,64 36.6315789,64 Z"></path>
                </g>
                <g transform="translate(300.000000, 161.000000)" id="右眼">
                    <path fill="#000000" id="形状-11" d="M50.6323124,2.19954203 C50.6323124,2.19954203 20.9563454,10.9977102 2.92888886,20.3457638 C2.92888886,20.3457638 -2.06332988,23.0951914 0.987470459,17.3213935 C0.987470459,17.3213935 17.6281996,0.824828263 46.1947846,1.77635684e-15 C46.1947846,1.77635684e-15 52.5737308,0.274942754 50.6323124,2.19954203 L50.6323124,2.19954203 Z"></path>
                    <path fill="#000000" id="椭圆-1" d="M37.8829611,58.5954144 C36.7689594,69.5494232 28.1354464,77.7649298 18.6664322,76.9433791 C8.91891749,76.3956787 2.23490742,67.0847712 3.07040868,56.1307624 C4.18441036,45.4506038 12.8179234,37.2350972 22.2869376,38.0566479 C32.0344523,38.6043483 38.9969628,47.9152558 37.8829611,58.5954144 L37.8829611,58.5954144 Z"></path>
                    <path fill="#FFFFFF" id="椭圆-2" d="M26.9756265,54.4273704 C26.6874356,58.4161604 24.0937178,61.2652962 20.9236183,60.9803826 C18.0417096,60.9803826 15.7361827,57.5614197 16.0243735,53.5726296 C16.3125644,49.5838396 18.9062822,46.7347038 22.0763817,47.0196174 C24.9582904,47.0196174 27.2638173,50.4385803 26.9756265,54.4273704 Z"></path>
                    <path fill="#FFFFFF" id="椭圆-3-拷贝" d="M14.6315789,64 C15.9473684,64 17,64.5 17,65.5 C17,66.25 15.9473684,67 14.6315789,67 C13.3157895,67 12,66.25 12,65.5 C12,64.5 13.3157895,64 14.6315789,64 Z"></path>
                </g>
                <path fill="#64BEF8" id="口罩" d="M115,254.042284 C115,254.042284 178.420698,262.059409 223.642412,241.325466 C223.642412,241.325466 255.077019,218.656354 286.235884,240.496108 C286.235884,240.496108 297.541312,254.042284 365.925369,254.042284 C365.925369,254.042284 372.543181,344.165823 261.143347,361.858788 C261.143347,361.858788 127.68414,370.428818 115,254.042284 Z"></path>
                <path fill="#000000" id="口罩备份" d="M286.236084,240.496233 L286.476585,240.742451 L286.866104,241.087223 L287.332501,241.456423 L287.95131,241.899855 L288.736217,242.409418 L289.442133,242.830114 L290.254952,243.280033 L291.18045,243.755759 L291.862898,244.085558 L292.599702,244.424295 L293.810569,244.946944 L294.690749,245.303595 L295.631273,245.665639 L296.633852,246.032064 L297.700197,246.401858 L298.832018,246.774007 L300.031028,247.147498 L301.298936,247.52132 L302.637453,247.89446 L304.04829,248.265904 L305.533159,248.63464 L307.093769,248.999657 L308.731833,249.35994 C309.011393,249.419537 309.294251,249.478894 309.580444,249.53799 L311.337894,249.889275 C311.637566,249.947246 311.940643,250.004913 312.247161,250.062257 L314.127849,250.402265 L316.092832,250.73349 C316.427449,250.787906 316.76565,250.841914 317.10747,250.895492 L319.202105,251.211643 L321.385315,251.516478 C321.756659,251.566285 322.131765,251.615578 322.510669,251.664336 L324.829946,251.9503 C325.618419,252.04337 326.422367,252.134132 327.242074,252.222417 L329.748764,252.479675 C330.174521,252.521257 330.604289,252.562177 331.038104,252.602415 L333.689844,252.835485 C334.13999,252.872908 334.594253,252.909608 335.052671,252.945561 L337.853311,253.152165 L340.755355,253.339858 L343.760515,253.507629 L346.870502,253.654464 L350.087027,253.779351 C351.177148,253.81721 352.285311,253.851242 353.4118,253.881278 L356.846532,253.959231 C357.428246,253.97017 358.014613,253.980067 358.605668,253.988902 L362.208547,254.028997 C363.428451,254.038 364.667395,254.042587 365.925663,254.042587 L365.959717,254.698202 L365.988912,255.689752 L366,257.097752 L365.987362,258.254774 L365.951721,259.577378 C365.943531,259.811177 365.934134,260.05155 365.923404,260.298335 L365.84204,261.854682 C364.484302,284.140705 352.491489,347.352085 261.143518,361.860507 L259.757072,361.924222 L258.085793,361.971419 L255.817391,362 L253.993727,361.998029 L251.935184,361.971762 C251.211212,361.958244 250.450127,361.939609 249.653964,361.914787 L247.162271,361.820697 C212.590781,360.290236 125.147324,347.153037 115,254.042587 L116.764462,254.240437 L119.384663,254.494113 L122.374072,254.742865 L125.251618,254.94763 L128.529225,255.143121 L131.232225,255.27566 L134.131221,255.389902 L137.213768,255.48024 L139.364627,255.524416 L142.725438,255.562456 L145.050283,255.566577 L147.43827,255.551768 L149.885711,255.516369 L152.388919,255.458718 L154.944207,255.377155 L157.547886,255.270018 L160.196271,255.135645 L162.885673,254.972377 L165.612405,254.778551 L168.37278,254.552508 C169.760764,254.431154 171.159981,254.297096 172.568357,254.149399 L175.396707,253.835543 L178.245793,253.483654 C193.013296,251.564451 208.463496,248.055865 222.307853,241.926938 L223.651939,241.318867 L224.553869,240.712698 L225.403884,240.176979 L226.513052,239.513922 L227.507673,238.948582 L228.636082,238.337008 L229.460144,237.908981 L230.339862,237.468466 L231.273713,237.01869 L232.260176,236.562876 L233.297729,236.104248 C233.474828,236.027755 233.653991,235.951279 233.835189,235.874887 L234.946522,235.418086 L236.105139,234.966533 L237.309519,234.523452 C237.513978,234.450491 237.72028,234.378017 237.928394,234.306097 L239.198563,233.881772 L240.510689,233.473982 C252.504065,229.887944 269.410278,228.702611 286.236084,240.496233 Z M283.44628,244.244618 C267.954181,233.741297 251.441957,234.021217 235.69624,240.881449 C233.282974,241.932882 231.112633,243.057219 229.227081,244.174867 L228.470677,244.631744 L227.854001,245.019296 L227.199292,245.454066 C227.144963,245.491814 227.096852,245.525884 227.055038,245.556118 C226.802994,245.738362 226.533892,245.895496 226.251543,246.025296 C206.111156,255.284076 181.368611,259.744381 154.34617,260.608417 C144.811671,260.91328 135.617074,260.740297 127.058322,260.227207 L125.75538,260.146086 L123.251928,259.972696 L121,259.795141 L121.156375,260.818836 C127.840616,303.363545 152.065835,330.478113 188.749656,345.435725 L189.92464,345.908973 C203.890008,351.46488 218.871779,354.932924 234.08081,356.695229 C243.812267,357.822835 252.352275,358.127718 259.025204,357.95503 L261.280299,357.872348 L262.660645,357.648476 C304.039832,350.729841 331.161654,333.266839 346.904319,308.461684 L347.504201,307.504026 C354.067125,296.888366 358.199267,285.512851 360.359746,273.999838 C361.384306,268.540045 361.868179,263.666887 361.990452,259.626052 L362,259.203923 L361.28693,259.198409 C360.040471,259.185082 358.809155,259.167134 357.592875,259.144625 L353.98903,259.063476 C352.802712,259.031905 351.63132,258.995834 350.474748,258.955321 L347.049378,258.820523 C345.922335,258.77119 344.810003,258.717477 343.712274,258.659443 L340.462784,258.472442 L337.300262,258.259882 C336.26051,258.184809 335.235145,258.105536 334.224058,258.022124 L331.233523,257.759529 C330.742203,257.713714 330.254426,257.666878 329.770178,257.619031 L326.906931,257.319859 C324.085815,257.008659 321.39077,256.661561 318.818876,256.280188 L316.287925,255.887451 L313.838426,255.472227 C313.035429,255.330111 312.2459,255.184307 311.46973,255.034876 L309.181188,254.575761 C307.307288,254.184196 305.516206,253.770336 303.806253,253.335122 L302.837956,253.08411 C293.192229,250.537462 287.298711,247.617353 284.147644,244.796199 L283.849469,244.522023 L283.44628,244.244618 Z"></path>
                <path fill="#F9E2DC" fill-opacity="0.1" id="护目镜" d="M116.743421,155.888183 C116.743421,155.888183 261.472414,124.093958 377.476569,156.717597 C377.476569,156.717597 394.600992,165.011742 388.800785,178.835318 C388.800785,178.835318 383.000577,225.559004 359.799746,241.870823 C359.799746,241.870823 313.398084,286.106266 275.834834,231.088434 C275.834834,231.088434 263.129617,211.458957 246.557595,227.770776 C246.557595,227.770776 203.746537,295.506297 137.182248,245.741425 C137.182248,245.741425 105.419206,211.182485 101,178.835318 C101,178.835318 101,158.929369 116.743421,155.888183 L116.743421,155.888183 Z"></path>
                <path fill="#000000" id="护目镜备份" d="M156.802153,147.026568 L152.108155,147.686897 C151.336176,147.797962 150.569422,147.909505 149.807963,148.021486 L145.303325,148.698325 L140.929184,149.383791 C140.211224,149.498649 139.498844,149.613787 138.792114,149.729166 L134.620102,150.424009 L130.5871,151.122727 L126.696513,151.823416 L122.295978,152.650819 L119.371634,153.225237 L115.573404,154.012817 C108.049498,155.47129 103.081203,160.468934 100.311667,167.618069 C99.3487239,170.103759 98.7151018,172.698637 98.3441546,175.277699 L98.261922,175.881394 L98.1345676,177.003729 C98.0825729,177.53506 98.047414,178.020147 98.0259958,178.452304 L98,179.309805 L98.0219129,179.654431 C98.2930296,181.646909 98.6667462,183.672501 99.1394797,185.729425 C101.896771,197.726754 107.897845,210.450715 116.167433,223.352918 C120.21799,229.672593 124.55445,235.626905 128.891879,241.041474 L129.642456,241.972906 L131.085979,243.732441 C131.319833,244.014012 131.55021,244.289672 131.776945,244.559319 L133.417452,246.479783 L134.711343,247.941242 L135.03937,248.238817 C154.899839,263.146713 174.028136,268.774128 192.163879,266.520794 C206.540512,264.734524 219.497016,258.136456 230.896771,248.279546 C235.600678,244.212266 239.71831,239.85827 243.226545,235.501153 C244.457399,233.97247 245.525692,232.550202 246.428209,231.26965 L247.038491,230.388377 L247.391112,229.857678 L247.210018,230.034649 C253.437893,223.879877 259.118128,222.950789 264.56308,225.639131 C266.585667,226.637745 268.472244,228.099394 270.168277,229.846138 C271.124748,230.831206 271.88764,231.762615 272.432178,232.519316 L272.751519,232.980827 C278.67669,241.694396 285.042914,248.3232 291.81002,253.017526 C310.092793,265.700246 329.640772,263.74428 348.087189,252.932192 C351.329407,251.031814 354.263581,248.996399 356.842662,246.957932 C357.749363,246.24129 358.548629,245.573775 359.23442,244.971803 L359.852627,244.418648 L359.977841,244.297903 L359.835681,244.404482 C368.50613,238.283998 375.348437,227.93101 380.662565,214.547591 C383.698636,206.90137 386.049257,198.730899 387.803498,190.5634 C388.314873,188.18251 388.744326,185.942353 389.097859,183.881415 L389.398838,182.055808 L389.710945,179.940857 L389.584188,180.257885 C392.880304,172.370652 390.187195,165.391292 383.931087,159.740266 C382.453326,158.405432 380.879044,157.245993 379.303759,156.260981 L378.907257,156.016565 L378.193706,155.595567 L377.597253,155.26548 L377.131288,155.026861 L376.737544,154.876882 C358.24505,149.65533 338.374927,145.882038 317.321929,143.44439 C265.572336,137.452496 210.231094,139.67935 156.802153,147.026568 Z M319.950233,148.790107 C338.430991,151.062499 355.953008,154.389692 372.374646,158.847447 L375.045135,159.584083 L375.429168,159.791762 L375.958421,160.095145 L376.595567,160.48216 C377.94524,161.324428 379.295914,162.317213 380.548125,163.446072 C385.441531,167.857442 387.359534,172.818224 384.985099,178.488727 C384.928858,178.623038 384.885044,178.762085 384.854124,178.904111 L384.572432,180.834664 L384.39308,181.968117 C384.018098,184.268277 383.537887,186.83474 382.942745,189.60015 C381.243295,197.496888 378.967773,205.390663 376.044667,212.73781 C371.050331,225.290939 364.698791,234.882327 356.935607,240.35152 L356.662003,240.576485 L356.144661,241.047399 L355.939672,241.228073 C355.315169,241.775164 354.57989,242.388023 353.740391,243.050236 C351.330349,244.951325 348.579983,246.855456 345.54304,248.63199 C328.561246,258.565903 310.942131,260.325377 294.45671,248.91212 C288.51567,244.798994 282.848775,239.013082 277.507315,231.415247 L276.603489,230.105711 C275.897212,229.06546 274.876403,227.779177 273.551096,226.416947 C271.505015,224.313862 269.201395,222.532638 266.64568,221.2733 C259.391131,217.698596 251.538634,218.980446 243.87922,226.534967 C243.74905,226.663355 243.634029,226.806329 243.536425,226.961074 L243.099262,227.62164 L242.551371,228.410672 C241.707538,229.605589 240.701981,230.941683 239.538738,232.383534 C236.206707,236.513619 232.290133,240.646814 227.823917,244.500926 C217.1017,253.753639 204.995604,259.906432 191.671925,261.558597 L190.679972,261.672976 C174.458509,263.402534 157.278628,258.329416 139.17822,245.07591 L138.246719,244.384107 L137.188942,243.18911 L135.597,241.329035 L134.233409,239.690199 C133.765237,239.120711 133.283865,238.528291 132.790617,237.913772 C128.559145,232.641931 124.326705,226.841954 120.379618,220.695906 C112.39493,208.26287 106.624939,196.053092 104.014204,184.715945 L103.701661,183.289187 C103.50502,182.342455 103.33188,181.404647 103.182595,180.476042 L103,179.252911 L103.020112,178.744718 C103.032168,178.509507 103.049498,178.250983 103.072927,177.971407 L103.162333,177.071787 C103.198784,176.752371 103.242158,176.414165 103.293281,176.059432 C103.615058,173.826661 104.163064,171.586852 104.982261,169.476408 C107.119134,163.971317 110.686554,160.265489 116.110007,158.999323 L119.029475,158.384439 L122.395939,157.712937 L124.429054,157.321823 L127.744456,156.703368 C129.005581,156.47228 130.290931,156.241181 131.599938,156.010385 L135.597359,155.319223 L139.733305,154.631776 C140.433983,154.517616 141.140291,154.403689 141.852157,154.290036 L146.189489,153.611708 L150.65681,152.941825 C151.412007,152.830986 152.172477,152.720579 152.93815,152.610641 L157.594055,151.956973 C210.579355,144.685188 265.459523,142.48126 316.678999,148.400031 L319.950233,148.790107 Z"></path>
            </g>
            <g transform="translate(284.000000, 365.000000)" id="衣服线条">
                <path fill="#64BEF8" id="形状结合" d="M283.110236,-2.48689958e-13 C283.110236,-2.48689958e-13 283.661417,8.73421461 290,13.1013219 C290,13.1013219 269.009012,29.0545349 230.190832,39.3885962 C233.533319,98.0164154 226.077283,144.797304 215.492645,180.328018 C248.651229,174.358818 279.620718,163.744231 303,146 L301.897179,165.583771 C301.897179,165.583771 282.494381,189.841881 209.021532,199.80511 L209.011885,199.804015 C192.241344,245.216309 172,267 172,267 L172,247.689972 C179.62842,232.348472 185.83876,216.947512 190.884421,201.846838 L190.894024,201.851042 C146.06997,205.950978 84.3201384,204.895071 -2.84217094e-14,192.406117 L3.58416742,175.65598 C3.58416742,175.65598 104.441438,194.973326 196.586739,183.220293 C214.883556,117.566612 212.30538,60.7784478 211.015528,44.3169805 L210.965,43.69 L209.731544,43.9130826 C168.683277,51.2078099 112.948583,50.7420436 45,25.6567554 C45,25.6567554 48.5826772,18.8331502 48.3070866,11.7366009 C48.3070866,11.7366009 177.007874,57.3182833 283.110236,-2.48689958e-13 Z"></path>
                <path stroke-width="2" stroke="#000000" id="形状结合备份" d="M283.110236,-2.48689958e-13 C283.110236,-2.48689958e-13 283.661417,8.73421461 290,13.1013219 C290,13.1013219 269.009012,29.0545349 230.190832,39.3885962 C233.533319,98.0164154 226.077283,144.797304 215.492645,180.328018 C248.651229,174.358818 279.620718,163.744231 303,146 L301.897179,165.583771 C301.897179,165.583771 282.494381,189.841881 209.021532,199.80511 L209.011885,199.804015 C192.241344,245.216309 172,267 172,267 L172,247.689972 C179.62842,232.348472 185.83876,216.947512 190.884421,201.846838 L190.894024,201.851042 C146.06997,205.950978 84.3201384,204.895071 -2.84217094e-14,192.406117 L3.58416742,175.65598 C3.58416742,175.65598 104.441438,194.973326 196.586739,183.220293 C214.883556,117.566612 212.30538,60.7784478 211.015528,44.3169805 L210.965,43.69 L209.731544,43.9130826 C168.683277,51.2078099 112.948583,50.7420436 45,25.6567554 C45,25.6567554 48.5826772,18.8331502 48.3070866,11.7366009 C48.3070866,11.7366009 177.007874,57.3182833 283.110236,-2.48689958e-13 Z"></path>
            </g>
            <g transform="translate(318.000000, 245.000000)" id="右手">
                <path fill="#FFFFFF" id="形状-22" d="M237.934146,63.0929257 C237.934146,63.0929257 285.509695,40.2768348 306.53145,10.3135348 C306.53145,10.3135348 326.723398,-7.82938079 327,9.48885684 L293.807756,61.7184624 C293.807756,61.7184624 288.552318,69.9652422 287.999114,74.6384174 C287.999114,74.6384174 279.701053,98.8289716 249.274829,106.525966 L226.870065,109 C226.870065,109 215.529382,84.2596605 237.934146,63.0929257 Z"></path>
                <path fill="#000000" id="形状-22备份" d="M315.353343,1.58783263 C313.68186,2.35795051 311.940615,3.37505465 310.160641,4.58019486 C308.755574,5.5315032 307.404379,6.54655209 306.151564,7.56184391 L305.291629,8.27161366 L304.517997,8.94092304 L304.315602,9.12286326 L304.159545,9.34540047 C295.640745,21.493227 282.021857,33.4182792 265.245174,44.6337052 C259.114177,48.7323551 252.907733,52.4988118 246.867812,55.8803646 L244.183923,57.3640057 L241.724523,58.6881064 L239.507406,59.8488608 L238.172715,60.5300697 L236.484043,61.3678346 L236.146413,61.5298282 L235.874705,61.78664 C220.496005,76.3222282 218.486673,93.1324973 223.34396,107.940113 L223.639695,108.804363 L223.891146,109.486007 L224.106775,110.028336 L224.280831,110.429705 L225.000305,112 L249.130623,109.334199 L249.456987,109.275165 C260.963323,106.363043 270.26302,100.992832 277.559965,93.8775081 C281.566704,89.9704974 284.717992,85.7825377 287.111353,81.586771 L287.436114,81.0095129 L288.02631,79.9150228 C288.118171,79.7395201 288.206809,79.5675545 288.292268,79.3992473 L288.767211,78.434277 L289.167937,77.5629363 L289.496538,76.7910515 C289.545411,76.6710157 289.591366,76.5553666 289.634446,76.4442257 L289.858787,75.8324492 L289.970507,75.3422265 C290.190154,73.4859125 291.409406,70.5773352 293.132428,67.3683685 L293.900264,65.9768979 L294.684503,64.6242522 L295.424017,63.4119812 L329,10.5542728 L328.988672,9.84469853 C328.910458,4.94544211 327.325372,1.72762644 324.196994,0.501410042 C321.688804,-0.481714081 318.727179,0.0333732932 315.353343,1.58783263 Z M322.448115,5.24269165 C323.243977,5.66903098 323.818979,6.8202412 323.982086,9.0983589 L324,9.45533514 L291.122477,61.3661645 L290.507113,62.3860296 L290.116358,63.053605 L289.655804,63.8590578 C287.393497,67.863733 285.750135,71.5197358 285.267637,74.3841956 L285.231141,74.6365946 L285.021492,75.1686404 L284.77753,75.739264 C284.29641,76.8347857 283.683063,78.0638942 282.9269,79.3932039 C280.752648,83.2154667 277.878668,87.0455288 274.221087,90.6220035 L273.410222,91.3985122 C267.125543,97.2923002 259.2729,101.811589 249.653021,104.456115 L248.540805,104.749171 L228.223308,107 L227.85741,105.867953 C223.905052,93.0805421 225.718097,78.7686772 238.595802,66.1106019 L239.066943,65.6523115 L241.142131,64.613057 L242.564519,63.8775683 L244.907462,62.6359145 L246.601505,61.7174018 L249.32785,60.206153 C255.449408,56.7693515 261.738656,52.9420163 267.957427,48.7731125 L269.508625,47.7252086 C285.445844,36.8752692 298.519564,25.3586966 307.155701,13.4462515 L307.806138,12.5294066 L308.78036,11.7079479 C308.870448,11.6338261 308.964521,11.5568848 309.062433,11.4773155 C310.210788,10.5440881 311.449937,9.61061797 312.727388,8.74330473 C314.300593,7.6751924 315.818039,6.78634701 317.220917,6.13818582 C319.508694,5.08118195 321.281371,4.77201859 322.274262,5.16228168 L322.448115,5.24269165 Z"></path>
                <path fill="url(#linearGradient-4)" id="形状-508" d="M275,103.010731 L192.490423,184.957465 L129.021518,240.140451 C55.6183494,283.183181 7.60274285,234.898068 7.60274285,234.898068 C-11.4379287,208.134319 24.1598486,153.779078 24.1598486,153.779078 L225.880586,47 L275,103.010731 Z"></path>
                <path fill="#000000" id="形状-508备份" d="M279,103.272264 L227.094527,44 L22.9235753,152.230551 L21.9670039,153.719412 L21.5999801,154.309598 C21.2915814,154.808475 20.9693213,155.33725 20.6345835,155.894674 L19.5943208,157.651645 C19.4151661,157.958382 19.2332379,158.271969 19.0487092,158.592249 C16.4158649,163.161996 13.7840244,168.164905 11.3261817,173.446286 C6.83144731,183.104514 3.43125223,192.588399 1.56965603,201.52272 C-1.41126935,215.829014 -0.27076889,227.863198 6.06167641,236.776865 L6.32846491,237.091141 L6.93579458,237.673334 C7.03807703,237.768682 7.14567838,237.867859 7.25859326,237.970755 L7.99980224,238.63185 L8.86827943,239.376798 C9.02361705,239.507645 9.18424682,239.641761 9.35016338,239.779034 C11.3841677,241.461897 13.7362493,243.217105 16.3967515,244.97998 C23.7879658,249.877472 32.2914701,254.021983 41.8281111,256.889364 C68.674887,264.961383 98.6034715,261.606303 130.781271,242.710662 L131.140837,242.451956 L194.683447,187.125923 L279,103.272264 Z M226.494385,50 L273,102.984868 L191.884409,183.480493 L128.545842,238.491156 L128.73438,238.38549 C97.6749302,256.582424 69.0851267,259.780045 43.4656645,252.094774 C34.3902875,249.372362 26.2948596,245.435825 19.2669216,240.789763 C16.7481379,239.124633 14.528388,237.471989 12.6188521,235.895743 L11.7654488,235.179053 L10.7207681,234.260519 L10.0646857,233.644979 L10.1783379,233.811857 C4.74728842,226.184608 3.72815738,215.455827 6.46641012,202.344436 C8.24608895,193.822919 11.5313778,184.680626 15.8884341,175.339789 C18.2868452,170.197977 20.8581358,165.321419 23.4284213,160.870523 L24.4739385,159.084256 L25.4486443,157.464518 L26.5008379,155.76871 L226.494385,50 Z"></path>
            </g>
            <path fill="#000000" id="起" d="M17.2364793,309 C21.4252386,300.295896 24.2735949,289.583153 26.116649,277.363931 C38.6829268,298.287257 58.621421,303.141469 91.9639449,303.141469 L155.968187,303.141469 C156.973489,298.454644 159.654295,291.424406 162,287.741901 C154.661294,288.043197 134.474825,288.163715 117.32839,288.175767 L110.91699,288.175206 C102.244637,288.16736 95.044294,288.130753 91.7963945,288.076674 C77.5546129,288.076674 65.9936373,287.239741 56.7783669,284.059395 L56.7783669,252.925486 L82.2460233,252.925486 L82.2460233,239.367171 L56.7783669,239.367171 L56.7783669,217.439525 L83.921527,217.439525 L83.921527,203.713823 L53.7624602,203.713823 L53.7624602,185.133909 L79.5652174,185.133909 L79.5652174,171.408207 L53.7624602,171.408207 L53.7624602,154 L39.0180276,154 L39.0180276,171.408207 L12.3775186,171.408207 L12.3775186,185.133909 L39.0180276,185.133909 L39.0180276,203.713823 L8.18875928,203.713823 L8.18875928,217.439525 L42.369035,217.439525 L42.369035,276.024838 C36.504772,270.50108 32.1484624,262.968683 28.7974549,252.423326 C29.300106,245.393089 29.6352068,237.860691 29.8027572,230.328294 L15.3934252,229.156587 C14.8907741,258.449244 13.04772,285.231102 4,301.969762 C7.68610817,303.643629 14.388123,307.158747 17.2364793,309 Z M138.253012,272 C152.927711,272 157.144578,265.638009 159,241.361991 C154.783133,240.357466 148.542169,238.013575 145.168675,235.334842 C144.325301,254.923077 143.313253,258.104072 136.903614,258.104072 L113.963855,258.104072 C106.879518,258.104072 105.698795,257.099548 105.698795,251.742081 L105.698795,218.760181 L150.060241,218.760181 L150.060241,161 L89,161 L89,174.895928 L135.048193,174.895928 L135.048193,205.199095 L90.5180723,205.199095 L90.5180723,251.909502 C90.5180723,267.81448 95.4096386,272 112.108434,272 L138.253012,272 Z"></path>
            <path fill="#000000" id="飞" d="M834,304 C846.5,303.832143 851.166667,295.439286 853,268.414286 C849.333333,266.735714 844.833333,262.539286 841.166667,259.014286 C840.5,277.310714 838.833333,287.55 834.5,287.717857 C818.166667,287.885714 810,265.057143 806.333333,227.457143 C820,235.010714 834.666667,244.242857 842.5,251.292857 L850.5,238.703571 C842.166667,231.989286 827,223.092857 813.166667,215.875 C825,206.307143 838.166667,193.717857 848.833333,182.303571 L834.833333,174.75 C827.166667,184.317857 815.666667,196.067857 804.833333,205.635714 C804.166667,192.542857 803.833333,178.275 803.833333,163 L704,163 L704,179.282143 L788.166667,179.282143 C789.833333,255.825 798.166667,303.832143 834,304 Z"></path>
        </g>
    </g>
</svg>